<?xml version="1.0" standalone="no"?><!DOCTYPE svg PUBLIC "-//W3C//DTD SVG 1.1//EN" "http://www.w3.org/Graphics/SVG/1.1/DTD/svg11.dtd"><svg t="1535349632812" class="icon" style="" viewBox="0 0 1024 1024" version="1.1" xmlns="http://www.w3.org/2000/svg" p-id="6014" xmlns:xlink="http://www.w3.org/1999/xlink" width="32" height="32"><defs><style type="text/css"></style></defs><path d="M136.731 404.95l12.741 51.713-44.219 161.386c-1.332 4.663-1.999 8.994-1.999 12.99 0 10.493 4.913 17.987 14.74 22.484l8.745 3.997c5.495 2.498 8.244 6.661 8.244 12.492 0 8.327-6.079 12.492-18.237 12.492h-63.456c-6.163 0-11.040-1.284-14.609-3.878-3.593-2.57-5.377-6.115-5.377-10.612 0-4.83 3.664-8.827 10.992-11.991 6.829-2.998 11.873-5.699 15.108-8.113 3.26-2.415 6.377-5.71 9.374-9.874 4.663-6.829 8.494-15.906 11.491-27.23l56.462-205.854zM153.969 341.495h100.678l69.451 293.542c1.332 5.163 2.831 9.743 4.497 13.74 1.499 3.165 4.83 5.746 9.993 7.744 4.33 1.831 7.328 3.664 8.993 5.495s2.498 4.33 2.498 7.494c0 8.66-6.496 12.99-19.486 12.99h-124.661c-4.996 0-8.993-1.202-11.991-3.616s-4.497-5.627-4.497-9.623c0-3.331 0.666-5.828 1.999-7.494s4.33-3.747 8.993-6.245c3.331-1.666 5.663-3.498 6.994-5.495 1.332-1.999 1.999-4.497 1.999-7.494 0-2.831-0.25-5.33-0.75-7.494l-7.995-36.224h-69.7l6.746-29.729h55.961l-45.967-203.106 6.246-24.483zM506.97 341.495v293.542c0 6.496 1.249 11.158 3.747 13.99 1.332 1.666 2.581 2.713 3.747 3.117 1.166 0.428 4.997 1.463 11.491 3.129 7.995 1.831 11.991 6.412 11.991 13.74 0 4.33-2.165 7.827-6.496 10.493-3.165 1.999-8.411 2.998-15.739 2.998h-126.411c-5.996 0-10.624-1.118-13.859-3.378-3.26-2.237-4.878-5.449-4.878-9.612 0-6.829 3.331-11.326 9.993-13.49 5.495-1.831 8.697-2.95 9.612-3.378 0.916-0.405 1.879-1.367 2.878-2.867 1.999-2.665 2.998-6.912 2.998-12.741v-250.074c0-5.828-0.998-10.076-2.998-12.741-0.998-1.499-1.963-2.45-2.878-2.879-0.916-0.405-4.116-1.535-9.612-3.366-6.661-2.165-9.993-6.661-9.993-13.49 0-4.164 1.618-7.363 4.878-9.623 3.235-2.237 7.863-3.366 13.859-3.366h117.667zM528.204 551.846v-26.732c7.162-1.666 12.193-3.414 15.12-5.246 2.902-1.831 5.449-4.663 7.614-8.494 3.498-6.496 5.246-15.238 5.246-26.231v-79.943c0-7.827-0.582-13.658-1.748-17.487-1.166-3.83-3.498-7.328-6.995-10.493-4.83-4.663-11.326-7.579-19.486-8.745v-26.98c34.309 0 59.625 3.247 75.947 9.743 18.82 7.494 33.726 18.986 44.719 34.476 11.158 15.822 16.738 35.225 16.738 58.209 0 25.649-5.663 46.634-16.988 62.955-11.326 16.156-27.148 28.063-47.466 35.725-16.822 6.164-41.055 9.244-72.699 9.244zM832.487 341.495v293.542c0 6.496 1.249 11.158 3.747 13.99 1.332 1.666 2.581 2.713 3.747 3.117 1.166 0.428 4.997 1.463 11.491 3.129 7.995 1.831 11.991 6.412 11.991 13.74 0 4.33-2.165 7.827-6.496 10.493-3.165 1.999-8.411 2.998-15.739 2.998h-126.41c-5.996 0-10.624-1.118-13.859-3.378-3.26-2.237-4.878-5.449-4.878-9.612 0-6.829 3.331-11.326 9.993-13.49 5.495-1.831 8.697-2.95 9.612-3.378 0.916-0.405 1.879-1.367 2.878-2.867 1.999-2.665 2.998-6.912 2.998-12.741v-250.074c0-5.828-0.999-10.076-2.998-12.741-0.998-1.499-1.963-2.45-2.878-2.879-0.916-0.405-4.116-1.535-9.612-3.366-6.661-2.165-9.993-6.661-9.993-13.49 0-4.164 1.618-7.363 4.878-9.623 3.235-2.237 7.863-3.366 13.859-3.366h117.666zM853.722 551.846v-26.732c7.162-1.666 12.193-3.414 15.12-5.246 2.902-1.831 5.449-4.663 7.614-8.494 3.498-6.496 5.246-15.238 5.246-26.231v-79.943c0-7.827-0.582-13.658-1.748-17.487-1.166-3.83-3.498-7.328-6.994-10.493-4.83-4.663-11.326-7.579-19.486-8.745v-26.98c34.309 0 59.625 3.247 75.947 9.743 18.82 7.494 33.726 18.986 44.719 34.476 11.158 15.822 16.738 35.225 16.738 58.209 0 25.649-5.663 46.634-16.988 62.955-11.326 16.156-27.148 28.063-47.466 35.725-16.822 6.164-41.056 9.244-72.7 9.244z" p-id="6015"></path></svg>