<?xml version="1.0" standalone="no"?><!DOCTYPE svg PUBLIC "-//W3C//DTD SVG 1.1//EN" "http://www.w3.org/Graphics/SVG/1.1/DTD/svg11.dtd"><svg t="1535349608920" class="icon" style="" viewBox="0 0 1024 1024" version="1.1" xmlns="http://www.w3.org/2000/svg" p-id="5332" xmlns:xlink="http://www.w3.org/1999/xlink" width="32" height="32"><defs><style type="text/css"></style></defs><path d="M511.5 927.7c-18.8 0-36.3-8.4-48.1-23L76.9 424.4c-15.9-19.7-18-47.7-5.3-69.7l144.2-249c2.5-4.4 7.2-7.1 12.3-7.1h575.4c5.2 0 10 2.8 12.5 7.4l136.8 249.3c12.1 22 9.7 48.9-6 68.4l-387 480.9c-11.9 14.7-29.5 23.1-48.3 23.1z m-25.9-40.9c6.4 7.9 15.8 12.4 26 12.4 10.1 0 19.6-4.5 26-12.4l387-480.9c8.5-10.6 9.8-25.1 3.3-36.9L795 127.1H236.3L96.2 369c-6.9 11.8-5.7 27 2.9 37.6l386.5 480.2z" p-id="5333"></path><path d="M513.3 920.3c-1.5 0-3.1-0.2-4.6-0.8-7.4-2.5-11.4-10.6-8.9-18l159.8-468.6c2.5-7.4 10.6-11.4 18-8.9s11.4 10.6 8.9 18L526.8 910.7c-2 5.9-7.6 9.6-13.5 9.6z" p-id="5334"></path><path d="M511.5 920.3c-5.8 0-11.3-3.6-13.4-9.4L326.5 430.4c-2.6-7.4 1.2-15.5 8.6-18.2 7.4-2.6 15.5 1.2 18.2 8.6L525 901.2c2.6 7.4-1.2 15.5-8.6 18.2-1.7 0.6-3.3 0.9-4.9 0.9zM316.6 368.6c-3.1 0-6.3-1-8.9-3.2-6.1-4.9-7.1-13.9-2.1-20l195-241.6c2.7-3.3 6.7-5.3 11-5.3s8.3 1.8 11 5.1l200.8 241.6c5 6 4.2 15-1.8 20s-15 4.2-20-1.8L511.7 135.3l-184.1 228c-2.8 3.5-6.9 5.3-11 5.3z" p-id="5335"></path><path d="M840.8 439.9H182.7c-23 0-41.7-18.7-41.7-41.7v-16.3c0-23 18.7-41.7 41.7-41.7h658.1c23 0 41.7 18.7 41.7 41.7v16.3c0 23-18.7 41.7-41.7 41.7z m-658.1-71.3c-7.3 0-13.3 6-13.3 13.3v16.3c0 7.3 6 13.3 13.3 13.3h658.1c7.3 0 13.3-6 13.3-13.3v-16.3c0-7.3-6-13.3-13.3-13.3H182.7z" p-id="5336"></path></svg>