<?xml version="1.0" standalone="no"?><!DOCTYPE svg PUBLIC "-//W3C//DTD SVG 1.1//EN" "http://www.w3.org/Graphics/SVG/1.1/DTD/svg11.dtd"><svg t="1541819072238" class="icon" style="" viewBox="0 0 1024 1024" version="1.1" xmlns="http://www.w3.org/2000/svg" p-id="4160" xmlns:xlink="http://www.w3.org/1999/xlink" width="81" height="81"><defs><style type="text/css"></style></defs><path d="M280.66572 258.769253h-70.646404v-73.273488C210.019316 164.953867 193.940296 148.284016 174.126385 148.284016c-19.835012 0-35.892931 16.66985-35.892931 37.211749v73.273488H67.5765C47.762589 258.769253 31.69412 275.439103 31.69412 295.981001c0 20.57355 16.06847 37.232849 35.88238 37.232849h70.656954v73.273488C138.233454 427.029236 154.301924 443.699086 174.126385 443.699086c19.813911 0 35.892931-16.66985 35.892931-37.211748v-73.273488h70.646404C300.490182 333.21385 316.558651 316.544 316.558651 295.991551s-16.06847-37.222299-35.892931-37.222298m192.652828-148.899746h-44.481069V65.377887a22.599253 22.599253 0 0 0-45.187955 0v44.49162h-44.49162a22.599253 22.599253 0 1 0 0 45.187955h44.49162v44.49162a22.588702 22.588702 0 1 0 45.187955 0v-44.49162h44.49162a22.588702 22.588702 0 1 0 0-45.187955M312.486144 43.991946h-28.781869V15.199527a14.623046 14.623046 0 1 0-29.246092 0v28.792419h-28.781868a14.623046 14.623046 0 1 0 0 29.224991h28.781868v28.792419a14.623046 14.623046 0 1 0 29.246092 0V73.227488h28.781869a14.623046 14.623046 0 0 0 0-29.235542m665.633455 677.513362c-29.351597-106.64484-92.285558-189.055094-190.606023-245.004598-8.493183-4.842697-17.334534-9.073463-26.154784-13.367532a668.102282 668.102282 0 0 0-319.945072 0.01055c-154.175015 69.886765-218.079625 176.352246-229.231543 331.86718-2.890847 40.38746-0.485325 80.416202 10.00191 119.98072 16.353334 62.385332 72.798714 109.103116 140.54372 108.98706 159.56634-0.358718 319.248736 0 478.815075-0.232112 51.275616-0.126606 90.734629-22.472646 119.37934-63.218825 14.559743-20.721257 21.417593-44.238407 25.268539-68.937217 9.273923-57.131164 7.343175-114.019666-8.071162-170.085226M706.517094 861.71141h-63.672498a1.424323 1.424323 0 0 0-1.424323 1.392671v29.931877h-0.348167c0.474774 2.437174 0.822942 4.990405 0.822942 7.543635 0 21.470345-18.104724 38.984239-40.355809 38.984239-22.240535 0-40.345258-17.397838-40.345258-38.984239 0-2.669286 0.358718-5.10646 0.822942-7.543635h-0.822942v-29.942427a1.424323 1.424323 0 0 0-1.424323-1.392671h-63.197724C478.825929 861.71141 464.266186 847.7847 464.266186 830.502918c0-17.302883 14.454237-31.229593 32.316299-31.229593h63.187173a1.413772 1.413772 0 0 0 1.424323-1.37157v-28.212139a1.424323 1.424323 0 0 0-1.424323-1.392671h-63.071117v-0.105505h-0.116056c-17.756556 0-32.316299-13.937261-32.316299-31.229594 0-17.176276 14.454237-31.208492 32.316299-31.208492h57.859151c0.601381 0 1.192211-0.348168 1.308267-0.928447 0.464224-1.255514 1.055054-2.458275 1.772491-3.597734a1.392671 1.392671 0 0 0-0.232112-1.740838l-71.479897-69.053273c-8.989059-8.577588-6.034908-25.532302 6.509682-37.602118 12.54459-12.069816 30.069034-14.960663 38.931486-6.256469l69.707406 67.417939a1.519278 1.519278 0 0 0 2.120659 0l64.50599-66.373436c10.170719-10.793201 30.891976-8.123914 43.552622 4.167463 12.534039 12.312478 18.81161 23.443296 6.383075 37.032389l-75.731763 74.845518a1.445424 1.445424 0 0 0-0.474774 1.160559c0.105505 0.685785 0.706886 1.266065 1.424323 1.266065h63.545891v0.116056c17.746005 0.126606 32.063086 14.053317 32.063086 31.229593s-14.31708 31.092436-32.073636 31.092436h-63.429836a1.434873 1.434873 0 0 0-1.413772 1.392671v28.201588c0 0.812391 0.706886 1.392671 1.413772 1.392671h63.672498v0.105506c17.746005 0.126606 32.063086 14.053317 32.063086 31.229593 0 16.944164-14.31708 30.744268-32.073636 30.860324M431.759978 422.59801a665.422445 665.422445 0 0 1 185.024789-26.281391 665.084828 665.084828 0 0 1 184.66607 26.186436 159.460835 159.460835 0 0 0 19.01207-36.103942c4.346822-11.784951 6.752344-24.160733 10.128516-36.283301 7.722994-28.127735 0.253213-52.393973-22.082276-70.994571-30.174539-25.078629-64.569294-28.03278-100.789292-13.314779-2.532129 1.055054-4.220215 1.77249-6.625738-0.58028-46.591177-42.993443-121.436695-43.457667-168.386589-0.949549-2.173411 2.004602-3.734891 2.468826-6.636289 1.181661-19.075373-8.598689-38.984239-10.360629-59.388979-6.245919-38.741576 7.775747-70.730808 39.923237-65.054619 83.845127 3.829845 29.530956 13.768452 55.949504 30.132337 79.540508" p-id="4161"></path></svg>